<svg xmlns="http://www.w3.org/2000/svg" viewBox="0 0 1200 800" role="img" aria-labelledby="title desc">
  <title id="title">Farmhouse Pizza</title>
  <desc id="desc">Illustrated pizza hero image for NomNom.</desc>
  <defs>
    <linearGradient id="bg" x1="0%" y1="0%" x2="100%" y2="100%">
      <stop offset="0%" stop-color="#3f1d12" />
      <stop offset="100%" stop-color="#14532d" />
    </linearGradient>
  </defs>
  <rect width="1200" height="800" fill="url(#bg)" />
  <circle cx="980" cy="180" r="160" fill="#fde68a" opacity="0.12" />
  <circle cx="140" cy="110" r="120" fill="#f97316" opacity="0.12" />
  <g transform="translate(260 110)">
    <ellipse cx="340" cy="520" rx="260" ry="55" fill="#000000" opacity="0.18" />
    <circle cx="340" cy="320" r="240" fill="#d97706" />
    <circle cx="340" cy="320" r="215" fill="#fbbf24" />
    <circle cx="340" cy="320" r="188" fill="#f59e0b" />
    <circle cx="260" cy="240" r="34" fill="#ef4444" />
    <circle cx="440" cy="240" r="34" fill="#ef4444" />
    <circle cx="510" cy="360" r="34" fill="#ef4444" />
    <circle cx="350" cy="430" r="34" fill="#ef4444" />
    <circle cx="200" cy="360" r="34" fill="#ef4444" />
    <circle cx="330" cy="300" r="46" fill="#fef3c7" />
    <circle cx="250" cy="360" r="42" fill="#fef3c7" />
    <circle cx="420" cy="350" r="42" fill="#fef3c7" />
    <circle cx="370" cy="210" r="42" fill="#fef3c7" />
    <rect x="210" y="170" width="28" height="110" rx="14" fill="#22c55e" transform="rotate(-25 224 225)" />
    <rect x="450" y="300" width="28" height="110" rx="14" fill="#22c55e" transform="rotate(18 464 355)" />
    <rect x="300" y="370" width="28" height="110" rx="14" fill="#22c55e" transform="rotate(38 314 425)" />
    <text x="340" y="650" fill="#f0fdf4" font-family="Verdana, Arial, sans-serif" font-size="48" text-anchor="middle">Farmhouse Pizza</text>
  </g>
</svg>
