<svg xmlns="http://www.w3.org/2000/svg" viewBox="0 0 1200 800" role="img" aria-labelledby="title desc">
  <title id="title">BBQ Chicken Burger</title>
  <desc id="desc">Illustrated burger hero image for NomNom.</desc>
  <defs>
    <linearGradient id="bg" x1="0%" y1="0%" x2="100%" y2="100%">
      <stop offset="0%" stop-color="#2c1810" />
      <stop offset="100%" stop-color="#7c2d12" />
    </linearGradient>
    <linearGradient id="bun" x1="0%" y1="0%" x2="0%" y2="100%">
      <stop offset="0%" stop-color="#fbbf24" />
      <stop offset="100%" stop-color="#d97706" />
    </linearGradient>
  </defs>
  <rect width="1200" height="800" fill="url(#bg)" />
  <circle cx="980" cy="120" r="180" fill="#f59e0b" opacity="0.15" />
  <circle cx="180" cy="700" r="220" fill="#fb923c" opacity="0.12" />
  <g transform="translate(220 180)">
    <ellipse cx="360" cy="360" rx="280" ry="60" fill="#000000" opacity="0.18" />
    <path d="M120 190c15-90 120-150 240-150s225 60 240 150H120Z" fill="url(#bun)" />
    <circle cx="230" cy="110" r="8" fill="#fde68a" />
    <circle cx="300" cy="90" r="8" fill="#fde68a" />
    <circle cx="370" cy="108" r="8" fill="#fde68a" />
    <circle cx="440" cy="92" r="8" fill="#fde68a" />
    <circle cx="510" cy="116" r="8" fill="#fde68a" />
    <rect x="130" y="195" width="470" height="24" rx="12" fill="#84cc16" />
    <rect x="145" y="220" width="440" height="18" rx="9" fill="#65a30d" />
    <rect x="155" y="245" width="420" height="46" rx="23" fill="#f97316" />
    <rect x="150" y="275" width="430" height="80" rx="38" fill="#78350f" />
    <path d="M145 285c90 45 330 45 440 0" fill="none" stroke="#92400e" stroke-width="14" stroke-linecap="round" />
    <rect x="125" y="340" width="480" height="30" rx="15" fill="#ef4444" />
    <rect x="120" y="360" width="490" height="44" rx="20" fill="#eab308" />
    <rect x="110" y="392" width="510" height="44" rx="22" fill="#ca8a04" />
    <text x="360" y="520" fill="#fff7ed" font-family="Verdana, Arial, sans-serif" font-size="48" text-anchor="middle">BBQ Chicken Burger</text>
  </g>
</svg>
